<?xml version="1.0" encoding="UTF-8" standalone="no"?>
<svg
   xmlns:dc="http://purl.org/dc/elements/1.1/"
   xmlns:cc="http://creativecommons.org/ns#"
   xmlns:rdf="http://www.w3.org/1999/02/22-rdf-syntax-ns#"
   xmlns:svg="http://www.w3.org/2000/svg"
   xmlns="http://www.w3.org/2000/svg"
   xmlns:sodipodi="http://sodipodi.sourceforge.net/DTD/sodipodi-0.dtd"
   xmlns:inkscape="http://www.inkscape.org/namespaces/inkscape"
   width="960"
   height="672"
   viewBox="0 0 254 177.8"
   version="1.1"
   id="svg11872"
   sodipodi:docname="map-bunker-hydra-ceiling-01.svg"
   inkscape:version="0.92.3 (2405546, 2018-03-11)">
  <metadata
     id="metadata11876">
    <rdf:RDF>
      <cc:Work
         rdf:about="">
        <dc:format>image/svg+xml</dc:format>
        <dc:type
           rdf:resource="http://purl.org/dc/dcmitype/StillImage" />
      </cc:Work>
    </rdf:RDF>
  </metadata>
  <sodipodi:namedview
     pagecolor="#ffffff"
     bordercolor="#666666"
     borderopacity="1"
     objecttolerance="10"
     gridtolerance="10"
     guidetolerance="10"
     inkscape:pageopacity="0"
     inkscape:pageshadow="2"
     inkscape:window-width="2400"
     inkscape:window-height="1271"
     id="namedview11874"
     showgrid="false"
     inkscape:zoom="0.35119048"
     inkscape:cx="11.59322"
     inkscape:cy="336"
     inkscape:window-x="2391"
     inkscape:window-y="-9"
     inkscape:window-maximized="1"
     inkscape:current-layer="svg11872" />
  <defs
     id="defs11852">
    <clipPath
       id="e">
      <path
         fill="#424148"
         stroke-width="3.175"
         d="M143.933 25.4H228.6v127h-84.667z"
         id="path11831" />
    </clipPath>
    <clipPath
       id="f">
      <path
         d="M127 169.334h16.933c0-4.234 4.233-8.467 8.467-8.467h16.933c4.233 0 8.467 4.233 8.468 8.467h67.732L228.6 152.4h-84.667z"
         fill="#3a3a3a"
         stroke-width="6.524"
         stroke-opacity=".227"
         id="path11834" />
    </clipPath>
    <clipPath
       id="g">
      <path
         d="M245.533 169.334L228.6 152.4v-127l16.933-16.933z"
         fill="#3a3a3a"
         stroke-width="3.175"
         id="path11837" />
    </clipPath>
    <clipPath
       id="d">
      <path
         d="M127 33.867V50.8H33.866L16.933 33.867z"
         fill="#2c2c2c"
         stroke-width="3.175"
         id="path11840" />
    </clipPath>
    <clipPath
       id="c">
      <path
         d="M16.933 143.934L33.865 127l.001-76.2-16.933-16.934z"
         fill="#2c2c2c"
         stroke-width="3.175"
         id="path11843" />
    </clipPath>
    <clipPath
       id="b">
      <path
         d="M33.866 50.8H127V127H33.866z"
         fill="#3a3a3a"
         stroke-width="2.577"
         id="path11846" />
    </clipPath>
    <clipPath
       id="a">
      <path
         d="M127 143.934V127H33.866l-16.933 16.934z"
         fill="#2c2c2c"
         stroke-width="3.175"
         id="path11849" />
    </clipPath>
  </defs>
  <path
     d="M127 143.934V127H33.866l-16.933 16.934z"
     clip-path="url(#a)"
     fill="#2c2c2c"
     stroke="#000"
     stroke-width="2.117"
     id="path11854"
     style="opacity:0.26" />
  <path
     d="M33.866 50.8H127V127H33.866z"
     clip-path="url(#b)"
     fill="#3a3a3a"
     stroke="#000"
     stroke-width="2.117"
     id="path11856"
     style="opacity:0.26" />
  <path
     d="M16.933 143.934L33.865 127l.001-76.2-16.933-16.934z"
     clip-path="url(#c)"
     fill="#2c2c2c"
     stroke="#000"
     stroke-width="2.117"
     id="path11858"
     style="opacity:0.26" />
  <path
     d="M127 33.867V50.8H33.866L16.933 33.867z"
     clip-path="url(#d)"
     fill="#2c2c2c"
     stroke="#000"
     stroke-width="2.117"
     id="path11860"
     style="opacity:0.26" />
  <path
     clip-path="url(#e)"
     fill="#565656"
     stroke="#000"
     stroke-width="2.117"
     d="M143.933 25.4H228.6v127h-84.667z"
     id="path11862"
     style="opacity:0.26" />
  <path
     d="M127 169.334h16.933c0-4.234 4.233-8.467 8.467-8.467h16.933c4.233 0 8.467 4.233 8.468 8.467h67.732L228.6 152.4h-84.667z"
     clip-path="url(#f)"
     fill="#3a3a3a"
     stroke-width="2.117"
     stroke="#000"
     id="path11864"
     style="opacity:0.26" />
  <path
     d="M245.533 169.334L228.6 152.4v-127l16.933-16.933z"
     clip-path="url(#g)"
     fill="#3a3a3a"
     stroke="#000"
     stroke-width="2.117"
     id="path11866"
     style="opacity:0.26" />
  <path
     clip-path="url(#f)"
     d="M127 169.334h16.933c0-4.234 4.233-8.467 8.467-8.467h16.933c4.233 0 8.467 4.233 8.468 8.467h67.732L228.6 152.4h-84.667z"
     transform="matrix(1 0 0 -1 0 177.8)"
     fill="#3a3a3a"
     stroke="#000"
     stroke-width="2.117"
     id="path11868"
     style="opacity:0.26" />
  <path
     clip-path="url(#g)"
     d="M245.533 169.334L228.6 152.4v-127l16.933-16.933z"
     transform="rotate(-180 186.267 88.9)"
     fill="#3a3a3a"
     stroke="#000"
     stroke-width="2.117"
     id="path11870"
     style="opacity:0.26" />
</svg>
