<?xml version="1.0" encoding="UTF-8" standalone="no"?>
<!-- Created with Inkscape (http://www.inkscape.org/) -->

<svg
   xmlns:dc="http://purl.org/dc/elements/1.1/"
   xmlns:cc="http://creativecommons.org/ns#"
   xmlns:rdf="http://www.w3.org/1999/02/22-rdf-syntax-ns#"
   xmlns:svg="http://www.w3.org/2000/svg"
   xmlns="http://www.w3.org/2000/svg"
   xmlns:sodipodi="http://sodipodi.sourceforge.net/DTD/sodipodi-0.dtd"
   xmlns:inkscape="http://www.inkscape.org/namespaces/inkscape"
   width="1664"
   height="864"
   viewBox="0 0 1664 864"
   version="1.1"
   id="svg4507"
   inkscape:version="0.92.2 (5c3e80d, 2017-08-06)"
   sodipodi:docname="map-building-warehouse-ceiling.svg">
  <defs
     id="defs4501">
    <clipPath
       clipPathUnits="userSpaceOnUse"
       id="clipPath4633">
      <path
         style="fill:#814e3a;fill-opacity:1;stroke:none;stroke-width:171.66796875;stroke-linecap:butt;stroke-linejoin:miter;stroke-miterlimit:10;stroke-dasharray:none;stroke-opacity:1;paint-order:normal"
         d="M 0,432 V 864 H 1664 V 432 Z m 448,64 h 144 v 48 h 32 v 96 h -96 v 32 h -80 v -64 h -32 v -80 h 32 z m 896,16 h 112 v 80 h 32 v 160 h -96 v -48 h -48 v -96 h -48 v -64 h 48 z M 128,576 h 80 v 32 h 32 v 96 h -32 v 64 H 144 V 736 H 112 V 656 H 96 v -64 h 32 z m 832,32 h 176 v 32 h 64 v 80 h -192 v 48 H 864 v -32 h -96 v -64 h 48 v -32 h 144 z"
         id="path4635"
         inkscape:connector-curvature="0" />
    </clipPath>
    <clipPath
       clipPathUnits="userSpaceOnUse"
       id="clipPath4655">
      <rect
         y="-134.99998"
         x="0"
         height="432"
         width="1664"
         id="rect4657"
         style="fill:#814e3a;fill-opacity:1;stroke:none;stroke-width:171.66796875;stroke-linecap:butt;stroke-linejoin:miter;stroke-miterlimit:10;stroke-dasharray:none;stroke-opacity:1;paint-order:normal" />
    </clipPath>
    <clipPath
       clipPathUnits="userSpaceOnUse"
       id="clipPath4718">
      <path
         style="fill:#814e3a;fill-opacity:1;stroke:none;stroke-width:80.8392334;stroke-linecap:butt;stroke-linejoin:miter;stroke-miterlimit:10;stroke-dasharray:none;stroke-opacity:1;paint-order:normal"
         d="M 0,0 V 432 H 1664 V 0 Z m 800,80 h 96 v 16 h 32 v 96 h -80 v 48 h -80 v -32 h -96 v -80 h 80 V 96 h 48 z m -656,6 h 48 v 16 h 128 v 48 h 128 v 96 h -32 v 96 H 240 V 310 H 112 v -64 h 64 v -48 h -32 z m 1122,18 h 208 v 32 h 48 v 112 h -48 v 64 h -192 v -32 h -80 v -80 h -32 v -80 h 96 z"
         id="path4720"
         inkscape:connector-curvature="0" />
    </clipPath>
    <clipPath
       clipPathUnits="userSpaceOnUse"
       id="clipPath4655-7">
      <rect
         y="-134.99998"
         x="0"
         height="432"
         width="1664"
         id="rect4657-1"
         style="fill:#814e3a;fill-opacity:1;stroke:none;stroke-width:171.66796875;stroke-linecap:butt;stroke-linejoin:miter;stroke-miterlimit:10;stroke-dasharray:none;stroke-opacity:1;paint-order:normal" />
    </clipPath>
  </defs>
  <sodipodi:namedview
     id="base"
     pagecolor="#ffffff"
     bordercolor="#666666"
     borderopacity="1.0"
     inkscape:pageopacity="0.0"
     inkscape:pageshadow="2"
     inkscape:zoom="0.35"
     inkscape:cx="204.56265"
     inkscape:cy="421.00783"
     inkscape:document-units="mm"
     inkscape:current-layer="layer1"
     showgrid="true"
     gridtolerance="10"
     guidetolerance="11"
     objecttolerance="10"
     units="mm"
     inkscape:showpageshadow="false"
     inkscape:window-width="1600"
     inkscape:window-height="837"
     inkscape:window-x="-8"
     inkscape:window-y="328"
     inkscape:window-maximized="1">
    <inkscape:grid
       type="xygrid"
       id="grid5052"
       spacingx="16"
       units="px"
       spacingy="16" />
  </sodipodi:namedview>
  <metadata
     id="metadata4504">
    <rdf:RDF>
      <cc:Work
         rdf:about="">
        <dc:format>image/svg+xml</dc:format>
        <dc:type
           rdf:resource="http://purl.org/dc/dcmitype/StillImage" />
        <dc:title />
      </cc:Work>
    </rdf:RDF>
  </metadata>
  <g
     inkscape:label="Layer 1"
     inkscape:groupmode="layer"
     id="layer1"
     transform="translate(0,566.99999)">
    <path
       inkscape:connector-curvature="0"
       id="path4631"
       transform="translate(0,-566.99999)"
       d="M 0,432 V 864 H 1664 V 432 Z m 448,64 h 144 v 48 h 32 v 96 h -96 v 32 h -80 v -64 h -32 v -80 h 32 z m 896,16 h 112 v 80 h 32 v 160 h -96 v -48 h -48 v -96 h -48 v -64 h 48 z M 128,576 h 80 v 32 h 32 v 96 h -32 v 64 H 144 V 736 H 112 V 656 H 96 v -64 h 32 z m 832,32 h 176 v 32 h 64 v 80 h -192 v 48 H 864 v -32 h -96 v -64 h 48 v -32 h 144 z"
       style="fill:#814e3a;fill-opacity:0.38190955;stroke:#191919;stroke-width:8;stroke-linecap:butt;stroke-linejoin:miter;stroke-miterlimit:10;stroke-dasharray:none;stroke-opacity:1;paint-order:normal;opacity:0.3"
       clip-path="url(#clipPath4633)" />
    <path
       style="fill:none;stroke:#000000;stroke-width:1px;stroke-linecap:butt;stroke-linejoin:miter;stroke-opacity:1"
       d="M 1760,121.00001 Z"
       id="path4581"
       inkscape:connector-curvature="0" />
    <rect
       style="fill:none;fill-opacity:1;stroke:#191919;stroke-width:15.99874016;stroke-linecap:butt;stroke-linejoin:miter;stroke-miterlimit:10;stroke-dasharray:none;stroke-opacity:1;paint-order:normal"
       id="rect4653"
       width="1664"
       height="432"
       x="0"
       y="-135"
       clip-path="url(#clipPath4655)" />
    <path
       id="path4716"
       transform="translate(0,-566.99999)"
       d="M 0 0 L 0 432 L 1664 432 L 1664 0 L 0 0 z M 800 80 L 896 80 L 896 96 L 928 96 L 928 192 L 848 192 L 848 240 L 768 240 L 768 208 L 672 208 L 672 128 L 752 128 L 752 96 L 800 96 L 800 80 z M 144 86 L 192 86 L 192 102 L 320 102 L 320 150 L 448 150 L 448 246 L 416 246 L 416 342 L 240 342 L 240 310 L 112 310 L 112 246 L 176 246 L 176 198 L 144 198 L 144 86 z M 1266 104 L 1474 104 L 1474 136 L 1522 136 L 1522 248 L 1474 248 L 1474 312 L 1282 312 L 1282 280 L 1202 280 L 1202 200 L 1170 200 L 1170 120 L 1266 120 L 1266 104 z "
       style="fill:#814e3a;fill-opacity:0.55276382;stroke:#191919;stroke-width:8;stroke-linecap:butt;stroke-linejoin:miter;stroke-miterlimit:10;stroke-dasharray:none;stroke-opacity:1;paint-order:normal;opacity:0.3"
       clip-path="url(#clipPath4718)" />
    <rect
       transform="translate(0,-431.99999)"
       style="fill:none;fill-opacity:1;stroke:#191919;stroke-width:16;stroke-linecap:butt;stroke-linejoin:miter;stroke-miterlimit:10;stroke-dasharray:none;stroke-opacity:1;paint-order:normal"
       id="rect4653-6"
       width="1664"
       height="432"
       x="0"
       y="-135"
       clip-path="url(#clipPath4655-7)" />
  </g>
</svg>
